<?xml version="1.0" encoding="UTF-8"?>
<svg width="16px" height="9px" viewBox="0 0 16 9" version="1.1" xmlns="http://www.w3.org/2000/svg" xmlns:xlink="http://www.w3.org/1999/xlink">
    <!-- Generator: Sketch 62 (91390) - https://sketch.com -->
    <title>Blog / Light Mode</title>
    <desc>Created with Sketch.</desc>
    <g id="Blog-/-Light-Mode" stroke="none" stroke-width="1" fill="none" fill-rule="evenodd">
        <g id="Blog-/-Base">
            <path d="M0.6409713,-2.58960077e-17 L15.3590287,2.58960077e-17 C15.5819084,-1.50463262e-17 15.6627299,0.0232064028 15.7442114,0.0667831759 C15.8256929,0.110359949 15.8896401,0.174307093 15.9332168,0.255788574 C15.9767936,0.337270056 16,0.418091615 16,0.6409713 L16,8.3590287 C16,8.58190838 15.9767936,8.66272994 15.9332168,8.74421143 C15.8896401,8.82569291 15.8256929,8.88964005 15.7442114,8.93321682 C15.6627299,8.9767936 15.5819084,9 15.3590287,9 L0.6409713,9 C0.418091615,9 0.337270056,8.9767936 0.255788574,8.93321682 C0.174307093,8.88964005 0.110359949,8.82569291 0.0667831759,8.74421143 C0.0232064028,8.66272994 1.00308841e-17,8.58190838 -1.72640051e-17,8.3590287 L1.72640051e-17,0.6409713 C-1.00308841e-17,0.418091615 0.0232064028,0.337270056 0.0667831759,0.255788574 C0.110359949,0.174307093 0.174307093,0.110359949 0.255788574,0.0667831759 C0.337270056,0.0232064028 0.418091615,1.50463262e-17 0.6409713,-2.58960077e-17 Z" id="Page-3" fill="#B0BEC5"></path>
            <rect id="Rectangle" fill="#212121" x="4" y="1" width="8" height="1" rx="0.5"></rect>
            <path d="M5.75,6 C5.88807119,6 6,6.11192881 6,6.25 C6,6.38807119 5.88807119,6.5 5.75,6.5 L1.25,6.5 C1.11192881,6.5 1,6.38807119 1,6.25 C1,6.11192881 1.11192881,6 1.25,6 L5.75,6 Z M14.25,5 C14.3880712,5 14.5,5.11192881 14.5,5.25 C14.5,5.38807119 14.3880712,5.5 14.25,5.5 L1.25,5.5 C1.11192881,5.5 1,5.38807119 1,5.25 C1,5.11192881 1.11192881,5 1.25,5 L14.25,5 Z M12.25,4 C12.3880712,4 12.5,4.11192881 12.5,4.25 C12.5,4.38807119 12.3880712,4.5 12.25,4.5 L1.25,4.5 C1.11192881,4.5 1,4.38807119 1,4.25 C1,4.11192881 1.11192881,4 1.25,4 L12.25,4 Z M13.75,3 C13.8880712,3 14,3.11192881 14,3.25 C14,3.38807119 13.8880712,3.5 13.75,3.5 L2.25,3.5 C2.11192881,3.5 2,3.38807119 2,3.25 C2,3.11192881 2.11192881,3 2.25,3 L13.75,3 Z" id="Body-Text-/-Kyli-/-Small" fill-opacity="0.5" fill="#212121"></path>
            <g id="Image-Placeholder-/-Light-Mode" transform="translate(4.000000, 7.000000)">
                <path d="M1,0 L7,0 C7.55228475,-1.01453063e-16 8,0.44771525 8,1 L8,2 L8,2 L0,2 L0,1 C-6.76353751e-17,0.44771525 0.44771525,1.01453063e-16 1,0 Z" id="Sky" fill="#29B6F6"></path>
                <polygon id="Big-Mountain" fill="#EEEEEE" points="0 1 1 0 3 2 0 2"></polygon>
                <polygon id="Small-Mountain" fill="#BDBDBD" points="2 2 3 1 4 2"></polygon>
                <path d="M7,1.5 C7.27614237,1.5 7.5,1.27614237 7.5,1 C7.5,0.723857625 7.27614237,0.5 7,0.5 C6.72385763,0.5 6.5,0.723857625 6.5,1 C6.5,1.27614237 6.72385763,1.5 7,1.5 Z" id="Sun" fill="#FFEB3B"></path>
            </g>
        </g>
    </g>
</svg>