<?xml version="1.0" encoding="UTF-8"?>
<svg width="16px" height="9px" viewBox="0 0 16 9" version="1.1" xmlns="http://www.w3.org/2000/svg" xmlns:xlink="http://www.w3.org/1999/xlink">
    <!-- Generator: Sketch 62 (91390) - https://sketch.com -->
    <title>Calendar / Light Mode</title>
    <desc>Created with Sketch.</desc>
    <defs>
        <path d="M16,0 L16,9 L0,9 L0,0 L16,0 Z M15,2 L1,2 L1,2.5 L15,2.5 L15,2 Z" id="path-1"></path>
    </defs>
    <g id="Calendar-/-Light-Mode" stroke="none" stroke-width="1" fill="none" fill-rule="evenodd">
        <g id="Calendar-/-Base">
            <path d="M0.6409713,-2.58960077e-17 L15.3590287,2.58960077e-17 C15.5819084,-1.50463262e-17 15.6627299,0.0232064028 15.7442114,0.0667831759 C15.8256929,0.110359949 15.8896401,0.174307093 15.9332168,0.255788574 C15.9767936,0.337270056 16,0.418091615 16,0.6409713 L16,8.3590287 C16,8.58190838 15.9767936,8.66272994 15.9332168,8.74421143 C15.8896401,8.82569291 15.8256929,8.88964005 15.7442114,8.93321682 C15.6627299,8.9767936 15.5819084,9 15.3590287,9 L0.6409713,9 C0.418091615,9 0.337270056,8.9767936 0.255788574,8.93321682 C0.174307093,8.88964005 0.110359949,8.82569291 0.0667831759,8.74421143 C0.0232064028,8.66272994 1.00308841e-17,8.58190838 -1.72640051e-17,8.3590287 L1.72640051e-17,0.6409713 C-1.00308841e-17,0.418091615 0.0232064028,0.337270056 0.0667831759,0.255788574 C0.110359949,0.174307093 0.174307093,0.110359949 0.255788574,0.0667831759 C0.337270056,0.0232064028 0.418091615,1.50463262e-17 0.6409713,-2.58960077e-17 Z" id="Page-3" fill="#B0BEC5"></path>
            <g id="Group" stroke-width="1">
                <mask id="mask-2" fill="white">
                    <use xlink:href="#path-1"></use>
                </mask>
                <g id="Rectangle-2"></g>
                <g id="Days" mask="url(#mask-2)">
                    <g transform="translate(1.100000, 1.000000)">
                        <rect id="Sunday" fill="#FFFFFF" x="0" y="0" width="1.8" height="7" rx="0.5"></rect>
                        <rect id="Monday" fill="#F5F5F5" x="2" y="0" width="1.8" height="7" rx="0.5"></rect>
                        <rect id="Tuesday" fill="#F0F0F0" x="4" y="0" width="1.8" height="7" rx="0.5"></rect>
                        <rect id="Wednesday" fill="#EBEBEB" x="6" y="0" width="1.8" height="7" rx="0.5"></rect>
                        <rect id="Thursday" fill="#E6E6E6" x="8" y="0" width="1.8" height="7" rx="0.5"></rect>
                        <rect id="Friday" fill="#E0E0E0" x="10" y="0" width="1.8" height="7" rx="0.5"></rect>
                        <rect id="Saturday" fill="#DBDBDB" x="12" y="0" width="1.8" height="7" rx="0.5"></rect>
                    </g>
                </g>
            </g>
            <path d="M10.4,5 C10.6761424,5 10.9,5.22385763 10.9,5.5 L10.9,7.5 C10.9,7.77614237 10.6761424,8 10.4,8 L9.6,8 C9.32385763,8 9.1,7.77614237 9.1,7.5 L9.1,5.5 C9.1,5.22385763 9.32385763,5 9.6,5 L10.4,5 Z M6.4,6 C6.67614237,6 6.9,6.22385763 6.9,6.5 L6.9,7.5 C6.9,7.77614237 6.67614237,8 6.4,8 L5.6,8 C5.32385763,8 5.1,7.77614237 5.1,7.5 L5.1,6.5 C5.1,6.22385763 5.32385763,6 5.6,6 L6.4,6 Z M4.3,6 C4.57614237,6 4.8,6.22385763 4.8,6.5 C4.8,6.77614237 4.57614237,7 4.3,7 L3.5,7 C3.22385763,7 3,6.77614237 3,6.5 C3,6.22385763 3.22385763,6 3.5,6 L4.3,6 Z M12.4,6 C12.6761424,6 12.9,6.22385763 12.9,6.5 C12.9,6.77614237 12.6761424,7 12.4,7 L11.6,7 C11.3238576,7 11.1,6.77614237 11.1,6.5 C11.1,6.22385763 11.3238576,6 11.6,6 L12.4,6 Z M8.4,5 C8.67614237,5 8.9,5.22385763 8.9,5.5 L8.9,6.5 C8.9,6.77614237 8.67614237,7 8.4,7 L7.6,7 C7.32385763,7 7.1,6.77614237 7.1,6.5 L7.1,5.5 C7.1,5.22385763 7.32385763,5 7.6,5 L8.4,5 Z M6.4,4 C6.67614237,4 6.9,4.22385763 6.9,4.5 C6.9,4.77614237 6.67614237,5 6.4,5 L5.6,5 C5.32385763,5 5.1,4.77614237 5.1,4.5 C5.1,4.22385763 5.32385763,4 5.6,4 L6.4,4 Z M4.4,3 C4.67614237,3 4.9,3.22385763 4.9,3.5 L4.9,4.5 C4.9,4.77614237 4.67614237,5 4.4,5 L3.6,5 C3.32385763,5 3.1,4.77614237 3.1,4.5 L3.1,3.5 C3.1,3.22385763 3.32385763,3 3.6,3 L4.4,3 Z M8.4,3 C8.67614237,3 8.9,3.22385763 8.9,3.5 C8.9,3.77614237 8.67614237,4 8.4,4 L7.6,4 C7.32385763,4 7.1,3.77614237 7.1,3.5 C7.1,3.22385763 7.32385763,3 7.6,3 L8.4,3 Z M12.4,3 C12.6761424,3 12.9,3.22385763 12.9,3.5 C12.9,3.77614237 12.6761424,4 12.4,4 L11.6,4 C11.3238576,4 11.1,3.77614237 11.1,3.5 C11.1,3.22385763 11.3238576,3 11.6,3 L12.4,3 Z M6.9,2.5 C6.9,2.77614237 6.67614237,3 6.4,3 L5.6,3 C5.32385763,3 5.1,2.77614237 5.1,2.5 L6.9,2.5 Z M10.9,2.5 C10.9,2.77614237 10.6761424,3 10.4,3 L9.6,3 C9.32385763,3 9.1,2.77614237 9.1,2.5 L10.9,2.5 Z M2.4,1 C2.67614237,1 2.9,1.22385763 2.9,1.5 L2.9,2 L1.1,2 L1.1,1.5 C1.1,1.22385763 1.32385763,1 1.6,1 L2.4,1 Z M14.4,1 C14.6761424,1 14.9,1.22385763 14.9,1.5 L14.9,2 L13.1,2 L13.1,1.5 C13.1,1.22385763 13.3238576,1 13.6,1 L14.4,1 Z" id="Combined-Shape" fill="#448AFF" opacity="0.8"></path>
        </g>
    </g>
</svg>